<?xml version="1.0" encoding="utf-8"?><svg viewBox="0 0 100 100" xmlns="http://www.w3.org/2000/svg" width="274px" height="274px" xmlns:xlink="http://www.w3.org/1999/xlink" style="width:100%;height:100%;background-size:initial;background-repeat-y:initial;background-repeat-x:initial;background-position-y:initial;background-position-x:initial;background-origin:initial;background-color:initial;background-clip:initial;background-attachment:initial;animation-play-state:paused" ><g class="ldl-scale" style="transform-origin:50% 50%;transform:rotate(0deg) scale(0.8, 0.8);animation-play-state:paused" ><ellipse fill="#323232" ry="2.985" rx="10.917" cy="87.015" cx="50" style="fill:rgb(229, 92, 48);animation-play-state:paused" ></ellipse>
<g style="animation-play-state:paused" ><path fill="#c33736" d="M46.786 10.178c-13.125 1.452-23.614 12.15-24.838 25.298-.995 10.689 3.986 20.287 11.987 25.846C41.979 66.912 47.628 75.313 49.079 85l.121.806a1.118 1.118 0 0 0 2.212 0l.265-1.77c1.393-9.297 6.785-17.378 14.482-22.775 7.267-5.096 12.018-13.535 12.018-23.084 0-16.62-14.39-29.88-31.391-27.999zM50 49.189c-6.082 0-11.012-4.93-11.012-11.012 0-6.082 4.93-11.012 11.012-11.012s11.012 4.93 11.012 11.012c0 6.082-4.93 11.012-11.012 11.012z" style="fill:rgb(132, 32, 107);animation-play-state:paused" ></path>
<path opacity=".1" d="M68.287 16.752c.381 2.543.591 5.156.591 7.827 0 12.328-4.237 23.495-11.097 31.623C52.636 62.297 50 70.123 50 78.101v8.603c.099.029.199.056.306.056.554 0 1.024-.405 1.106-.953l.265-1.77c1.393-9.297 6.785-17.378 14.482-22.775 7.267-5.096 12.018-13.535 12.018-23.084 0-8.581-3.841-16.258-9.89-21.426z" style="fill:rgb(246, 215, 70);animation-play-state:paused" ></path>
<path stroke-miterlimit="10" stroke-linejoin="round" stroke-linecap="round" stroke-width="2" stroke="#fff" fill="none" d="M29.526 24.474c2.065-3.095 4.764-5.56 8.19-7.395" style="stroke:rgb(241, 242, 243);animation-play-state:paused" ></path>
<path stroke-miterlimit="10" stroke-linejoin="round" stroke-linecap="round" stroke-width="2" stroke="#fff" fill="none" d="M26.604 30.355c.231-.64.478-1.262.742-1.866" style="stroke:rgb(241, 242, 243);animation-play-state:paused" ></path></g>
<metadata xmlns:d="https://loading.io/stock/" style="animation-play-state:paused" ><d:name style="animation-play-state:paused" >marker</d:name>


<d:tags style="animation-play-state:paused" >marker,location,localize,site,map,poi</d:tags>


<d:license style="animation-play-state:paused" >by</d:license>


<d:slug style="animation-play-state:paused" >dl58ag</d:slug></metadata></g><!-- generated by https://loading.io/ --></svg>